# File created by Blade
# Date/Time:  Tue Jan 27 19:18:41 2015
# Frame Rate: 120.000 fps
#------------------------------------------------------
:FULLY-SPECIFIED
:DEGREES
3504
root 1.285440 32.138478 1.153030 2.112200 -33.138617 -4.551677
Spine 3.054422 -18.004905 -7.107295
Head 18.117973 18.538142 17.042304
LeftShoulder -14.348153 4.011284 31.273532
LeftArm -10.730192 38.259434 -108.588595
LeftForeArm 6.757535 -0.000000 20.341455
LeftHand 10.132162 0.000000 -3.602882
LeftHandThumb1 -26.253704 0.000000 33.147579
RightShoulder -32.775035 -24.325092 -35.326892
RightArm -36.830776 69.727958 19.911020
RightForeArm 21.375596 -0.000000 104.988708
RightHand 27.538751 -0.000000 -27.060081
RightHandThumb1 -24.326973 -0.000000 -32.862282
LeftUpLeg 18.196184 25.745025 8.930705
LeftLeg -3.834815 -0.000000 0.000000
LeftFoot -20.713765 17.838270 -28.876875
LeftToeBase 15.511943 -0.000000 -0.000000
RightUpLeg 0.034923 15.851945 9.892896
RightLeg 9.506412 -0.000000 -0.000000
RightFoot -9.408688 -6.678813 8.264870
RightToeBase 12.221800 -0.000000 -0.000000
3505
root 1.284050 32.138545 1.153735 2.089259 -33.082629 -4.534989
Spine 3.068268 -17.945212 -7.084594
Head 18.091500 18.518520 16.982063
LeftShoulder -14.355376 4.017290 31.248222
LeftArm -10.656930 38.275077 -108.535086
LeftForeArm 6.726919 -0.000000 20.365491
LeftHand 10.181053 -0.000000 -3.294634
LeftHandThumb1 -26.253704 0.000000 33.147579
RightShoulder -32.750516 -24.336531 -35.361215
RightArm -36.828660 69.702293 19.863471
RightForeArm 21.382980 -0.000000 105.090538
RightHand 27.551683 -0.000000 -27.003222
RightHandThumb1 -24.326973 -0.000000 -32.862282
LeftUpLeg 18.184876 25.731686 8.937198
LeftLeg -3.821293 -0.000000 0.000000
LeftFoot -20.681535 17.847147 -28.777285
LeftToeBase 15.636797 -0.000000 -0.000000
RightUpLeg 0.067297 15.852059 9.893517
RightLeg 9.482334 -0.000000 -0.000000
RightFoot -9.440825 -6.736242 8.311374
RightToeBase 12.230226 -0.000000 -0.000000
3506
root 1.283392 32.139013 1.153579 2.075251 -33.022332 -4.522090
Spine 3.076408 -17.904138 -7.053378
Head 18.076856 18.517012 16.922263
LeftShoulder -14.364197 4.026271 31.208086
LeftArm -10.590716 38.182764 -108.455648
LeftForeArm 6.842212 -0.000000 20.434510
LeftHand 10.180182 -0.000000 -3.300886
LeftHandThumb1 -26.253704 0.000000 33.147579
RightShoulder -32.718575 -24.335280 -35.398641
RightArm -36.801787 69.719999 19.835949
RightForeArm 21.336158 0.000000 105.234696
RightHand 27.366165 -0.000000 -27.107925
RightHandThumb1 -24.326973 -0.000000 -32.862282
LeftUpLeg 18.149672 25.687577 8.929594
LeftLeg -3.771972 -0.000000 0.000000
LeftFoot -20.712029 17.811739 -28.808588
LeftToeBase 15.639574 -0.000000 -0.000000
RightUpLeg 0.090088 15.838740 9.893595
RightLeg 9.455001 -0.000000 -0.000000
RightFoot -9.438837 -6.791933 8.289995
RightToeBase 12.182735 -0.000000 -0.000000
3507
root 1.283325 32.139334 1.152803 2.054220 -32.955465 -4.500573
Spine 3.094588 -17.855803 -7.036924
Head 18.052338 18.506341 16.875202
LeftShoulder -14.373326 4.046032 31.177630
LeftArm -10.516074 38.017425 -108.347371
LeftForeArm 7.157766 -0.000000 20.559872
LeftHand 10.200976 0.000000 -3.479546
LeftHandThumb1 -26.253704 0.000000 33.147579
RightShoulder -32.695598 -24.325145 -35.412740
RightArm -36.858630 69.721582 19.703195
RightForeArm 21.354879 -0.000000 105.393309
RightHand 27.545678 -0.000000 -27.274193
RightHandThumb1 -24.326973 -0.000000 -32.862282
LeftUpLeg 18.118359 25.672412 8.923318
LeftLeg -3.725996 -0.000000 0.000000
LeftFoot -20.689525 17.771052 -28.766048
LeftToeBase 15.689397 -0.000000 -0.000000
RightUpLeg 0.098143 15.815360 9.883299
RightLeg 9.456833 -0.000000 -0.000000
RightFoot -9.464478 -6.825282 8.327412
RightToeBase 12.220826 -0.000000 -0.000000
3508
root 1.285969 32.140425 1.149459 2.052626 -32.877968 -4.466005
Spine 3.095560 -17.815257 -7.028300
Head 18.018514 18.470608 16.833882
LeftShoulder -14.377032 3.895518 31.192737
LeftArm -10.634481 37.877331 -108.387489
LeftForeArm 7.289400 -0.000000 20.634248
LeftHand 10.207324 -0.000000 -3.464096
LeftHandThumb1 -26.253704 0.000000 33.147579
RightShoulder -32.689546 -24.311782 -35.430773
RightArm -36.778847 69.731305 19.732273
RightForeArm 21.355654 -0.000000 105.606486
RightHand 27.580657 -0.000000 -27.500457
RightHandThumb1 -24.326973 -0.000000 -32.862282
LeftUpLeg 18.039167 25.609482 8.869980
LeftLeg -3.676158 -0.000000 0.000000
LeftFoot -20.646382 17.784407 -28.660830
LeftToeBase 15.435313 -0.000000 -0.000000
RightUpLeg 0.068683 15.766031 9.852138
RightLeg 9.462993 -0.000000 -0.000000
RightFoot -9.472810 -6.849733 8.309860
RightToeBase 12.169781 -0.000000 -0.000000
3509
root 1.288880 32.141486 1.146274 2.034241 -32.782712 -4.429171
Spine 3.113540 -17.786007 -7.028352
Head 18.006972 18.443548 16.816699
LeftShoulder -14.385355 3.873128 31.186384
LeftArm -10.576617 37.843036 -108.347452
LeftForeArm 7.286640 -0.000000 20.658216
LeftHand 10.202638 -0.000000 -3.380263
LeftHandThumb1 -26.253704 0.000000 33.147579
RightShoulder -32.701249 -24.329654 -35.422417
RightArm -36.643363 69.770983 19.810714
RightForeArm 21.267431 -0.000000 105.837063
RightHand 27.418299 -0.000000 -27.419853
RightHandThumb1 -24.326973 -0.000000 -32.862282
LeftUpLeg 17.970466 25.534743 8.824199
LeftLeg -3.623060 -0.000000 0.000000
LeftFoot -20.645276 17.780874 -28.631265
LeftToeBase 15.448109 -0.000000 -0.000000
RightUpLeg 0.048616 15.686355 9.821950
RightLeg 9.483469 -0.000000 -0.000000
RightFoot -9.497003 -6.861701 8.316659
RightToeBase 12.186858 -0.000000 -0.000000
3510
root 1.288666 32.141044 1.145593 2.018626 -32.731574 -4.411686
Spine 3.114296 -17.700033 -7.000391
Head 18.024742 18.406190 16.786516
LeftShoulder -14.396549 3.902479 31.158611
LeftArm -10.477859 37.768998 -108.268651
LeftForeArm 7.342242 0.000000 20.721452
LeftHand 10.189670 -0.000000 -3.399489
LeftHandThumb1 -26.253704 0.000000 33.147579
RightShoulder -32.678971 -24.314616 -35.477108
RightArm -36.612899 69.817653 19.809502
RightForeArm 21.335894 -0.000000 106.106221
RightHand 27.361537 -0.000000 -27.430213
RightHandThumb1 -24.326973 -0.000000 -32.862282
LeftUpLeg 17.957979 25.524312 8.819934
LeftLeg -3.612442 -0.000000 0.000000
LeftFoot -20.629807 17.749708 -28.610618
LeftToeBase 15.485867 -0.000000 -0.000000
RightUpLeg 0.039720 15.676795 9.814641
RightLeg 9.515017 -0.000000 -0.000000
RightFoot -9.543028 -6.891019 8.352884
RightToeBase 12.294936 -0.000000 -0.000000
3511
root 1.287514 32.141216 1.144809 2.005708 -32.648837 -4.398021
Spine 3.118203 -17.649215 -6.976014
Head 18.049165 18.362552 16.776336
LeftShoulder -14.407444 3.911499 31.145233
LeftArm -10.427210 37.686006 -108.236482
LeftForeArm 7.288839 -0.000000 20.778907
LeftHand 10.177182 -0.000000 -3.286020
LeftHandThumb1 -26.253704 0.000000 33.147579
RightShoulder -32.658328 -24.282876 -35.513316
RightArm -36.579145 69.837630 19.786650
RightForeArm 21.421409 -0.000000 106.392315
RightHand 27.469706 -0.000000 -27.352908
RightHandThumb1 -24.326973 -0.000000 -32.862282
LeftUpLeg 17.940651 25.459387 8.813129
LeftLeg -3.623782 -0.000000 0.000000
LeftFoot -20.658955 17.737024 -28.684759
LeftToeBase 15.575425 -0.000000 -0.000000
RightUpLeg 0.034353 15.600497 9.806127
RightLeg 9.529893 -0.000000 -0.000000
RightFoot -9.542680 -6.875305 8.341075
RightToeBase 12.165150 -0.000000 -0.000000
3512
root 1.287485 32.140890 1.142147 1.995175 -32.581925 -4.380659
Spine 3.121145 -17.589380 -6.956062
Head 18.069998 18.314487 16.759806
LeftShoulder -14.402099 3.863054 31.149447
LeftArm -10.446254 37.585018 -108.246524
LeftForeArm 7.203155 -0.000000 20.831421
LeftHand 10.158102 -0.000000 -3.237011
LeftHandThumb1 -26.253704 0.000000 33.147579
RightShoulder -32.621725 -24.249666 -35.551362
RightArm -36.538079 69.899865 19.792670
RightForeArm 21.482881 -0.000000 106.729534
RightHand 27.362401 -0.000000 -27.481685
RightHandThumb1 -24.326973 -0.000000 -32.862282
LeftUpLeg 17.913151 25.408005 8.796830
LeftLeg -3.614825 -0.000000 0.000000
LeftFoot -20.644022 17.734143 -28.671150
LeftToeBase 15.530826 -0.000000 -0.000000
RightUpLeg 0.015698 15.582273 9.798636
RightLeg 9.562961 -0.000000 -0.000000
RightFoot -9.572336 -6.906719 8.364540
RightToeBase 12.193904 -0.000000 -0.000000
